%TF.GenerationSoftware,KiCad,Pcbnew,6.0.6*%
%TF.CreationDate,2022-07-16T22:08:54-05:00*%
%TF.ProjectId,junk,6a756e6b-2e6b-4696-9361-645f70636258,v1.0.0*%
%TF.SameCoordinates,Original*%
%TF.FileFunction,Soldermask,Top*%
%TF.FilePolarity,Negative*%
%FSLAX46Y46*%
G04 Gerber Fmt 4.6, Leading zero omitted, Abs format (unit mm)*
G04 Created by KiCad (PCBNEW 6.0.6) date 2022-07-16 22:08:54*
%MOMM*%
%LPD*%
G01*
G04 APERTURE LIST*
G04 Aperture macros list*
%AMRoundRect*
0 Rectangle with rounded corners*
0 $1 Rounding radius*
0 $2 $3 $4 $5 $6 $7 $8 $9 X,Y pos of 4 corners*
0 Add a 4 corners polygon primitive as box body*
4,1,4,$2,$3,$4,$5,$6,$7,$8,$9,$2,$3,0*
0 Add four circle primitives for the rounded corners*
1,1,$1+$1,$2,$3*
1,1,$1+$1,$4,$5*
1,1,$1+$1,$6,$7*
1,1,$1+$1,$8,$9*
0 Add four rect primitives between the rounded corners*
20,1,$1+$1,$2,$3,$4,$5,0*
20,1,$1+$1,$4,$5,$6,$7,0*
20,1,$1+$1,$6,$7,$8,$9,0*
20,1,$1+$1,$8,$9,$2,$3,0*%
G04 Aperture macros list end*
%ADD10C,3.500000*%
%ADD11C,1.800000*%
%ADD12C,2.100000*%
%ADD13O,1.900000X1.900000*%
%ADD14O,1.600000X1.600000*%
%ADD15O,1.800000X1.800000*%
%ADD16RoundRect,0.050000X-1.750000X-0.850000X1.750000X-0.850000X1.750000X0.850000X-1.750000X0.850000X0*%
%ADD17RoundRect,0.050000X-0.850000X-0.850000X0.850000X-0.850000X0.850000X0.850000X-0.850000X0.850000X0*%
%ADD18RoundRect,0.050000X0.850000X-1.750000X0.850000X1.750000X-0.850000X1.750000X-0.850000X-1.750000X0*%
%ADD19C,1.600000*%
%ADD20O,2.300000X1.700000*%
G04 APERTURE END LIST*
D10*
%TO.C,S20*%
X260379303Y-197779610D03*
D11*
X264884639Y-200934280D03*
X255873967Y-194624940D03*
D12*
X256995202Y-202612607D03*
X262295473Y-203760270D03*
X254103952Y-198024506D03*
%TD*%
D10*
%TO.C,S19*%
X240639980Y-188575012D03*
D11*
X245952572Y-189998517D03*
X235327388Y-187151507D03*
D12*
X239112948Y-194273974D03*
X244486097Y-193539625D03*
X234826838Y-190951435D03*
%TD*%
D10*
%TO.C,S18*%
X220470000Y-184930000D03*
D11*
X225949071Y-185409357D03*
X214990929Y-184450643D03*
D12*
X219955781Y-190807549D03*
X225119782Y-189151319D03*
X215157835Y-188279761D03*
%TD*%
D10*
%TO.C,S17*%
X250470000Y-125930000D03*
D11*
X255970000Y-125930000D03*
X244970000Y-125930000D03*
D12*
X250470000Y-131830000D03*
X255470000Y-129730000D03*
X245470000Y-129730000D03*
%TD*%
D10*
%TO.C,S16*%
X250470000Y-142930000D03*
D11*
X255970000Y-142930000D03*
X244970000Y-142930000D03*
D12*
X250470000Y-148830000D03*
X255470000Y-146730000D03*
X245470000Y-146730000D03*
%TD*%
D10*
%TO.C,S15*%
X250470000Y-159930000D03*
D11*
X255970000Y-159930000D03*
X244970000Y-159930000D03*
D12*
X250470000Y-165830000D03*
X255470000Y-163730000D03*
X245470000Y-163730000D03*
%TD*%
D10*
%TO.C,S14*%
X232470000Y-121930000D03*
D11*
X237970000Y-121930000D03*
X226970000Y-121930000D03*
D12*
X232470000Y-127830000D03*
X237470000Y-125730000D03*
X227470000Y-125730000D03*
%TD*%
D10*
%TO.C,S13*%
X232470000Y-138930000D03*
D11*
X237970000Y-138930000D03*
X226970000Y-138930000D03*
D12*
X232470000Y-144830000D03*
X237470000Y-142730000D03*
X227470000Y-142730000D03*
%TD*%
D10*
%TO.C,S12*%
X232470000Y-155930000D03*
D11*
X237970000Y-155930000D03*
X226970000Y-155930000D03*
D12*
X232470000Y-161830000D03*
X237470000Y-159730000D03*
X227470000Y-159730000D03*
%TD*%
D10*
%TO.C,S11*%
X214470000Y-113930000D03*
D11*
X219970000Y-113930000D03*
X208970000Y-113930000D03*
D12*
X214470000Y-119830000D03*
X219470000Y-117730000D03*
X209470000Y-117730000D03*
%TD*%
D10*
%TO.C,S10*%
X214470000Y-130930000D03*
D11*
X219970000Y-130930000D03*
X208970000Y-130930000D03*
D12*
X214470000Y-136830000D03*
X219470000Y-134730000D03*
X209470000Y-134730000D03*
%TD*%
D10*
%TO.C,S9*%
X214470000Y-147930000D03*
D11*
X219970000Y-147930000D03*
X208970000Y-147930000D03*
D12*
X214470000Y-153830000D03*
X219470000Y-151730000D03*
X209470000Y-151730000D03*
%TD*%
D10*
%TO.C,S8*%
X196470000Y-118430000D03*
D11*
X201970000Y-118430000D03*
X190970000Y-118430000D03*
D12*
X196470000Y-124330000D03*
X201470000Y-122230000D03*
X191470000Y-122230000D03*
%TD*%
D10*
%TO.C,S7*%
X196470000Y-135430000D03*
D11*
X201970000Y-135430000D03*
X190970000Y-135430000D03*
D12*
X196470000Y-141330000D03*
X201470000Y-139230000D03*
X191470000Y-139230000D03*
%TD*%
D10*
%TO.C,S6*%
X196470000Y-152430000D03*
D11*
X201970000Y-152430000D03*
X190970000Y-152430000D03*
D12*
X196470000Y-158330000D03*
X201470000Y-156230000D03*
X191470000Y-156230000D03*
%TD*%
D10*
%TO.C,S5*%
X178470000Y-125930000D03*
D11*
X183970000Y-125930000D03*
X172970000Y-125930000D03*
D12*
X178470000Y-131830000D03*
X183470000Y-129730000D03*
X173470000Y-129730000D03*
%TD*%
D10*
%TO.C,S4*%
X178470000Y-142930000D03*
D11*
X183970000Y-142930000D03*
X172970000Y-142930000D03*
D12*
X178470000Y-148830000D03*
X183470000Y-146730000D03*
X173470000Y-146730000D03*
%TD*%
D10*
%TO.C,S3*%
X178470000Y-159930000D03*
D11*
X183970000Y-159930000D03*
X172970000Y-159930000D03*
D12*
X178470000Y-165830000D03*
X183470000Y-163730000D03*
X173470000Y-163730000D03*
%TD*%
D10*
%TO.C,S2*%
X160470000Y-142930000D03*
D11*
X165970000Y-142930000D03*
X154970000Y-142930000D03*
D12*
X160470000Y-148830000D03*
X165470000Y-146730000D03*
X155470000Y-146730000D03*
%TD*%
D10*
%TO.C,S1*%
X160470000Y-159930000D03*
D11*
X165970000Y-159930000D03*
X154970000Y-159930000D03*
D12*
X160470000Y-165830000D03*
X165470000Y-163730000D03*
X155470000Y-163730000D03*
%TD*%
D13*
%TO.C,U1*%
X276765000Y-132800000D03*
X271315000Y-132800000D03*
D14*
X271615000Y-135830000D03*
X276465000Y-135830000D03*
D15*
X265150000Y-132670000D03*
D16*
X264250000Y-132670000D03*
D15*
X265150000Y-135210000D03*
D16*
X264250000Y-135210000D03*
X264250000Y-137750000D03*
D17*
X265150000Y-137750000D03*
D15*
X265150000Y-140290000D03*
D16*
X264250000Y-140290000D03*
D15*
X265150000Y-142830000D03*
D16*
X264250000Y-142830000D03*
D15*
X265150000Y-145370000D03*
D16*
X264250000Y-145370000D03*
X264250000Y-147910000D03*
D15*
X265150000Y-147910000D03*
D17*
X265150000Y-150450000D03*
D16*
X264250000Y-150450000D03*
X264250000Y-152990000D03*
D15*
X265150000Y-152990000D03*
X265150000Y-155530000D03*
D16*
X264250000Y-155530000D03*
X264250000Y-158070000D03*
D15*
X265150000Y-158070000D03*
X265150000Y-160610000D03*
D16*
X264250000Y-160610000D03*
D17*
X265150000Y-163150000D03*
D16*
X264250000Y-163150000D03*
X264250000Y-165690000D03*
D15*
X265150000Y-165690000D03*
X265150000Y-168230000D03*
D16*
X264250000Y-168230000D03*
X264250000Y-170770000D03*
D15*
X265150000Y-170770000D03*
D16*
X264250000Y-173310000D03*
D15*
X265150000Y-173310000D03*
D16*
X264250000Y-175850000D03*
D17*
X265150000Y-175850000D03*
D15*
X265150000Y-178390000D03*
D16*
X264250000Y-178390000D03*
X264250000Y-180930000D03*
D15*
X265150000Y-180930000D03*
D16*
X283830000Y-180930000D03*
D15*
X282930000Y-180930000D03*
D16*
X283830000Y-178390000D03*
D15*
X282930000Y-178390000D03*
D16*
X283830000Y-175850000D03*
D17*
X282930000Y-175850000D03*
D15*
X282930000Y-173310000D03*
D16*
X283830000Y-173310000D03*
X283830000Y-170770000D03*
D15*
X282930000Y-170770000D03*
D16*
X283830000Y-168230000D03*
D15*
X282930000Y-168230000D03*
X282930000Y-165690000D03*
D16*
X283830000Y-165690000D03*
D17*
X282930000Y-163150000D03*
D16*
X283830000Y-163150000D03*
D15*
X282930000Y-160610000D03*
D16*
X283830000Y-160610000D03*
X283830000Y-158070000D03*
D15*
X282930000Y-158070000D03*
X282930000Y-155530000D03*
D16*
X283830000Y-155530000D03*
D15*
X282930000Y-152990000D03*
D16*
X283830000Y-152990000D03*
X283830000Y-150450000D03*
D17*
X282930000Y-150450000D03*
D16*
X283830000Y-147910000D03*
D15*
X282930000Y-147910000D03*
D16*
X283830000Y-145370000D03*
D15*
X282930000Y-145370000D03*
X282930000Y-142830000D03*
D16*
X283830000Y-142830000D03*
X283830000Y-140290000D03*
D15*
X282930000Y-140290000D03*
D16*
X283830000Y-137750000D03*
D17*
X282930000Y-137750000D03*
D16*
X283830000Y-135210000D03*
D15*
X282930000Y-135210000D03*
X282930000Y-132670000D03*
D16*
X283830000Y-132670000D03*
D18*
X271500000Y-181600000D03*
D15*
X271500000Y-180700000D03*
D17*
X274040000Y-180700000D03*
D18*
X274040000Y-181600000D03*
D15*
X276580000Y-180700000D03*
D18*
X276580000Y-181600000D03*
%TD*%
D19*
%TO.C,U2*%
X280860000Y-192560000D03*
X287860000Y-192560000D03*
D20*
X278160000Y-194860000D03*
X278160000Y-185660000D03*
X279260000Y-190260000D03*
X286260000Y-190260000D03*
D19*
X280860000Y-187960000D03*
X287860000Y-187960000D03*
D20*
X283260000Y-190260000D03*
%TD*%
M02*
