M48
; DRILL file {KiCad 6.0.6} date Sat 16 Jul 2022 10:09:00 PM CDT
; FORMAT={-:-/ absolute / inch / decimal}
; #@! TF.CreationDate,2022-07-16T22:09:00-05:00
; #@! TF.GenerationSoftware,Kicad,Pcbnew,6.0.6
; #@! TF.FileFunction,Plated,1,2,PTH
FMAT,2
INCH
; #@! TA.AperFunction,Plated,PTH,ComponentDrill
T1C0.0354
; #@! TA.AperFunction,Plated,PTH,ComponentDrill
T2C0.0402
; #@! TA.AperFunction,Plated,PTH,ComponentDrill
T3C0.0472
%
G90
G05
T2
X10.439Y-5.2232
X10.439Y-5.3232
X10.439Y-5.4232
X10.439Y-5.5232
X10.439Y-5.6232
X10.439Y-5.7232
X10.439Y-5.8232
X10.439Y-5.9232
X10.439Y-6.0232
X10.439Y-6.1232
X10.439Y-6.2232
X10.439Y-6.3232
X10.439Y-6.4232
X10.439Y-6.5232
X10.439Y-6.6232
X10.439Y-6.7232
X10.439Y-6.8232
X10.439Y-6.9232
X10.439Y-7.0232
X10.439Y-7.1232
X10.689Y-7.1142
X10.789Y-7.1142
X10.889Y-7.1142
X11.139Y-5.2232
X11.139Y-5.3232
X11.139Y-5.4232
X11.139Y-5.5232
X11.139Y-5.6232
X11.139Y-5.7232
X11.139Y-5.8232
X11.139Y-5.9232
X11.139Y-6.0232
X11.139Y-6.1232
X11.139Y-6.2232
X11.139Y-6.3232
X11.139Y-6.4232
X11.139Y-6.5232
X11.139Y-6.6232
X11.139Y-6.7232
X11.139Y-6.8232
X11.139Y-6.9232
X11.139Y-7.0232
X11.139Y-7.1232
T3
X6.1209Y-5.7768
X6.1209Y-6.4461
X6.3177Y-5.8594
X6.3177Y-6.5287
X6.5146Y-5.7768
X6.5146Y-6.4461
X6.8295Y-5.1075
X6.8295Y-5.7768
X6.8295Y-6.4461
X7.0264Y-5.1902
X7.0264Y-5.8594
X7.0264Y-6.5287
X7.2232Y-5.1075
X7.2232Y-5.7768
X7.2232Y-6.4461
X7.5382Y-4.8122
X7.5382Y-5.4815
X7.5382Y-6.1508
X7.735Y-4.8949
X7.735Y-5.5642
X7.735Y-6.2335
X7.9319Y-4.8122
X7.9319Y-5.4815
X7.9319Y-6.1508
X8.2469Y-4.635
X8.2469Y-5.3043
X8.2469Y-5.9736
X8.4437Y-4.7177
X8.4437Y-5.387
X8.4437Y-6.0563
X8.4708Y-7.4126
X8.6406Y-4.635
X8.6406Y-5.3043
X8.6406Y-5.9736
X8.6597Y-7.5121
X8.863Y-7.4469
X8.9555Y-4.95
X8.9555Y-5.6193
X8.9555Y-6.2886
X9.1524Y-5.0327
X9.1524Y-5.702
X9.1524Y-6.3713
X9.2452Y-7.5178
X9.3492Y-4.95
X9.3492Y-5.6193
X9.3492Y-6.2886
X9.4139Y-7.6486
X9.6254Y-7.6197
X9.6642Y-5.1075
X9.6642Y-5.7768
X9.6642Y-6.4461
X9.861Y-5.1902
X9.861Y-5.8594
X9.861Y-6.5287
X10.0041Y-7.7962
X10.0579Y-5.1075
X10.0579Y-5.7768
X10.0579Y-6.4461
X10.1179Y-7.9769
X10.3266Y-8.0221
T1
G00X10.963Y-7.3094
M15
G01X10.9394Y-7.3094
M16
G05
G00X10.963Y-7.6717
M15
G01X10.9394Y-7.6717
M16
G05
G00X11.0063Y-7.4906
M15
G01X10.9827Y-7.4906
M16
G05
G00X11.1638Y-7.4906
M15
G01X11.1402Y-7.4906
M16
G05
G00X11.2819Y-7.4906
M15
G01X11.2583Y-7.4906
M16
G05
T0
M30
