M48
; DRILL file {KiCad 6.0.6} date Sat 16 Jul 2022 10:09:00 PM CDT
; FORMAT={-:-/ absolute / inch / decimal}
; #@! TF.CreationDate,2022-07-16T22:09:00-05:00
; #@! TF.GenerationSoftware,Kicad,Pcbnew,6.0.6
; #@! TF.FileFunction,NonPlated,1,2,NPTH
FMAT,2
INCH
; #@! TA.AperFunction,NonPlated,NPTH,ComponentDrill
T1C0.0591
; #@! TA.AperFunction,NonPlated,NPTH,ComponentDrill
T2C0.0669
; #@! TA.AperFunction,NonPlated,NPTH,ComponentDrill
T3C0.0709
; #@! TA.AperFunction,NonPlated,NPTH,ComponentDrill
T4C0.1339
%
G90
G05
T1
X10.6935Y-5.3476
X10.8844Y-5.3476
X11.0575Y-7.4
X11.0575Y-7.5811
X11.3331Y-7.4
X11.3331Y-7.5811
T2
X6.1012Y-5.6272
X6.1012Y-6.2965
X6.5343Y-5.6272
X6.5343Y-6.2965
X6.8098Y-4.9579
X6.8098Y-5.6272
X6.8098Y-6.2965
X7.2429Y-4.9579
X7.2429Y-5.6272
X7.2429Y-6.2965
X7.5185Y-4.6626
X7.5185Y-5.3319
X7.5185Y-6.0012
X7.9516Y-4.6626
X7.9516Y-5.3319
X7.9516Y-6.0012
X8.2272Y-4.4854
X8.2272Y-5.1547
X8.2272Y-5.824
X8.4642Y-7.2618
X8.6602Y-4.4854
X8.6602Y-5.1547
X8.6602Y-5.824
X8.8956Y-7.2996
X8.9358Y-4.8004
X8.9358Y-5.4697
X8.9358Y-6.139
X9.2649Y-7.3682
X9.3689Y-4.8004
X9.3689Y-5.4697
X9.3689Y-6.139
X9.6445Y-4.9579
X9.6445Y-5.6272
X9.6445Y-6.2965
X9.6832Y-7.4803
X10.0738Y-7.6624
X10.0776Y-4.9579
X10.0776Y-5.6272
X10.0776Y-6.2965
X10.4285Y-7.9108
T3
X10.6817Y-5.2283
X10.8963Y-5.2283
T4
X6.3177Y-5.6272
X6.3177Y-6.2965
X7.0264Y-4.9579
X7.0264Y-5.6272
X7.0264Y-6.2965
X7.735Y-4.6626
X7.735Y-5.3319
X7.735Y-6.0012
X8.4437Y-4.4854
X8.4437Y-5.1547
X8.4437Y-5.824
X8.6799Y-7.2807
X9.1524Y-4.8004
X9.1524Y-5.4697
X9.1524Y-6.139
X9.474Y-7.4242
X9.861Y-4.9579
X9.861Y-5.6272
X9.861Y-6.2965
X10.2512Y-7.7866
T0
M30
